<?xml version="1.0" encoding="UTF-8" standalone="no"?>
<!-- Created with Inkscape (http://www.inkscape.org/) -->

<svg
   xmlns:dc="http://purl.org/dc/elements/1.1/"
   xmlns:cc="http://creativecommons.org/ns#"
   xmlns:rdf="http://www.w3.org/1999/02/22-rdf-syntax-ns#"
   xmlns:svg="http://www.w3.org/2000/svg"
   xmlns="http://www.w3.org/2000/svg"
   xmlns:sodipodi="http://sodipodi.sourceforge.net/DTD/sodipodi-0.dtd"
   xmlns:inkscape="http://www.inkscape.org/namespaces/inkscape"
   width="1500mm"
   height="1500mm"
   viewBox="0 0 1500 1500"
   version="1.1"
   id="svg8"
   inkscape:version="0.92.4 (5da689c313, 2019-01-14)"
   sodipodi:docname="delete.svg">
  <defs
     id="defs2" />
  <sodipodi:namedview
     id="base"
     pagecolor="#ffffff"
     bordercolor="#666666"
     borderopacity="1.0"
     inkscape:pageopacity="0.0"
     inkscape:pageshadow="2"
     inkscape:zoom="0.12374369"
     inkscape:cx="1865.518"
     inkscape:cy="2580.4663"
     inkscape:document-units="mm"
     inkscape:current-layer="layer1"
     showgrid="false"
     inkscape:window-width="1920"
     inkscape:window-height="1016"
     inkscape:window-x="0"
     inkscape:window-y="27"
     inkscape:window-maximized="1" />
  <metadata
     id="metadata5">
    <rdf:RDF>
      <cc:Work
         rdf:about="">
        <dc:format>image/svg+xml</dc:format>
        <dc:type
           rdf:resource="http://purl.org/dc/dcmitype/StillImage" />
        <dc:title></dc:title>
      </cc:Work>
    </rdf:RDF>
  </metadata>
  <g
     inkscape:label="Capa 1"
     inkscape:groupmode="layer"
     id="layer1"
     transform="translate(0,1203)">
    <path
       style="fill:#ffffff;stroke-width:6.61107779;fill-opacity:1"
       d="m 450.45733,277.61147 c -11.89143,-7.3091 -24.58423,-19.98983 -28.20628,-28.17952 -6.22197,-14.0678 -191.47723,-995.88247 -191.47723,-1014.78944 0,-4.89015 7.30235,-16.19316 16.22716,-25.11817 l 16.22735,-16.22716 h 499.00643 c 310.59664,0 505.45414,2.4512 516.08304,6.49256 35.3152,13.42663 36.1265,5.99933 -59.4477,544.23167 -88.7054,499.55064 -89.6139,503.90762 -109.1753,523.5759 l -19.7255,19.83326 -308.94576,1.73406 c -299.49195,1.68163 -309.60682,1.32931 -330.56621,-11.55435 z M 803.8567,150.55036 c 11.30774,-12.49511 11.99764,-35.98364 11.99764,-408.53387 0,-379.42731 -0.5047,-395.83437 -12.59409,-409.19279 -18.3875,-20.31798 -52.16483,-18.61687 -69.56461,3.50315 -13.50809,17.17289 -13.70198,22.9041 -13.70198,405.1102 0,345.387113 1.15939,389.34631 10.62387,402.85887 19.89419,28.40323 50.80607,31.04283 73.23917,6.25444 z m -186.03436,-1.65162 c 10.77127,-10.77103 16.17565,-23.55227 16.07347,-38.01359 -0.27983,-39.528502 -130.63323,-759.14398 -139.43581,-769.7506 -13.7737,-16.59595 -37.07161,-22.78043 -55.01658,-14.60401 -36.07966,16.43878 -36.28729,13.98359 35.68758,421.64445 36.71428,207.948728 70.23924,383.67006 74.49949,390.49194 8.06148,12.90841 28.63733,25.24037 43.40049,26.01173 4.71025,0.25018 15.86659,-6.85487 24.79136,-15.77992 z m 366.08365,-1.95393 c 19.29931,-17.9832 20.23851,-22.32392 86.61741,-400.26204 63.8474,-363.52525 66.5801,-382.88474 56.2711,-398.61839 -16.9963,-25.93926 -39.185,-33.30284 -59.7496,-19.82849 -9.4048,6.16223 -19.8729,17.74034 -23.2627,25.72935 -8.8258,20.80122 -132.06718,728.908308 -132.06718,758.81788 0,19.06694 4.10109,28.16406 17.41927,38.64034 22.88534,18.00165 31.39282,17.30605 54.7717,-4.47865 z M 160.41213,-879.31356 c -35.99242,-14.66598 -46.25075,-62.59904 -19.18839,-89.66119 15.98607,-15.98599 17.93751,-16.22717 131.31916,-16.22717 121.77145,0 178.13256,-6.76118 196.74071,-23.60118 6.24067,-5.6478 14.77215,-23.8726 18.95892,-40.4998 29.42015,-116.8377 99.77211,-152.6063 286.72073,-145.7747 106.4036,3.8883 140.37958,14.5186 183.05517,57.2734 21.78596,21.8261 33.62389,41.0787 42.33907,68.8575 24.0055,76.51416 43.6454,83.64182 230.6425,83.70638 109.0514,0.0505 111.326,0.3273 127.2632,16.26557 21.015,21.0151 21.1219,50.06645 0.2729,74.30632 l -15.9537,18.54917 -584.0013,1.28932 c -321.20068,0.70962 -590.37668,-1.30932 -598.16904,-4.48362 z m 719.33434,-117.74381 c 24.08996,-9.87443 29.1333,-29.98483 14.06602,-56.08903 -21.40113,-37.0777 -46.06832,-44.4219 -149.23961,-44.4336 -100.38477,-0.011 -125.17237,6.0478 -149.07972,36.4412 -27.89644,35.4644 -15.2639,61.40209 34.17038,70.1595 39.76991,7.04525 229.30568,2.43873 250.08293,-6.07807 z"
       id="path826"
       inkscape:connector-curvature="0" />
  </g>
</svg>
