<?xml version="1.0" encoding="UTF-8" standalone="no"?>
<!-- Created with Inkscape (http://www.inkscape.org/) -->

<svg
   xmlns:dc="http://purl.org/dc/elements/1.1/"
   xmlns:cc="http://creativecommons.org/ns#"
   xmlns:rdf="http://www.w3.org/1999/02/22-rdf-syntax-ns#"
   xmlns:svg="http://www.w3.org/2000/svg"
   xmlns="http://www.w3.org/2000/svg"
   xmlns:sodipodi="http://sodipodi.sourceforge.net/DTD/sodipodi-0.dtd"
   xmlns:inkscape="http://www.inkscape.org/namespaces/inkscape"
   width="210mm"
   height="297mm"
   viewBox="0 0 210 297"
   version="1.1"
   id="svg8"
   inkscape:version="0.92.4 (5da689c313, 2019-01-14)"
   sodipodi:docname="pin.svg">
  <defs
     id="defs2" />
  <sodipodi:namedview
     id="base"
     pagecolor="#ffffff"
     bordercolor="#666666"
     borderopacity="1.0"
     inkscape:pageopacity="0.0"
     inkscape:pageshadow="2"
     inkscape:zoom="0.175"
     inkscape:cx="-516.48444"
     inkscape:cy="345.99743"
     inkscape:document-units="mm"
     inkscape:current-layer="layer1"
     showgrid="false"
     inkscape:window-width="1920"
     inkscape:window-height="1016"
     inkscape:window-x="0"
     inkscape:window-y="27"
     inkscape:window-maximized="1" />
  <metadata
     id="metadata5">
    <rdf:RDF>
      <cc:Work
         rdf:about="">
        <dc:format>image/svg+xml</dc:format>
        <dc:type
           rdf:resource="http://purl.org/dc/dcmitype/StillImage" />
        <dc:title></dc:title>
      </cc:Work>
    </rdf:RDF>
  </metadata>
  <g
     inkscape:label="Capa 1"
     inkscape:groupmode="layer"
     id="layer1">
    <path
       style="fill:#000000;stroke-width:0.71325672"
       d="m 41.952035,17.157092 c -3.530179,-0.03376 -7.054903,0.506061 -9.497613,1.629876 -4.914926,2.261187 -9.764747,7.069113 -12.10727,12.003402 -1.649751,3.47504 -2.03197,5.246968 -2.032436,9.424231 -8.15e-4,7.49592 1.914885,12.022506 7.667749,18.120857 2.563929,2.717878 4.535374,5.081254 4.38113,5.251358 -0.154258,0.170186 -29.2851151,29.359809 -64.735067,64.866324 l -64.454462,64.5573 -39.340236,0.20154 -39.34075,0.20102 -4.79505,2.36109 c -12.2296,6.02212 -19.20124,19.09136 -17.06408,31.98875 1.61166,9.726 2.43677,10.75201 34.04753,42.35555 l 28.84475,28.83855 -55.87204,55.9997 c -30.7296,30.79974 -57.78264,58.25855 -60.11829,61.01953 -9.59426,11.34125 -17.67472,25.8985 -22.48131,40.50241 -3.3118,10.06242 -3.29606,12.57999 0.0977,15.63936 v 5.3e-4 c 2.58127,2.32696 4.42949,2.43346 10.76679,0.62114 11.63345,-3.32685 26.08168,-10.29454 36.19727,-17.45628 9.21081,-6.52116 19.38938,-16.32643 71.54809,-68.92499 l 53.39105,-53.84169 29.067996,28.98633 c 31.707656,31.61919 32.738694,32.4502 42.353486,34.12456 12.917858,2.24954 26.5455159,-4.97031 32.29932227,-17.11164 L 2.9792201,373.86709 3.3357858,334.10364 3.6923542,294.34069 67.8843,230.14667 c 26.745839,-26.74677 49.94716,-49.78002 59.79583,-59.39069 h 1.5875 v -1.5446 c 2.15254,-2.08831 3.39112,-3.25872 3.46232,-3.25872 0.35977,0 2.67019,1.93612 5.13406,4.30206 6.02772,5.7881 10.69879,7.82348 17.95084,7.82278 6.95667,-7.3e-4 12.56681,-2.43108 17.16123,-7.43417 4.57862,-4.98589 6.10067,-8.88998 6.14277,-15.75873 0.0668,-10.92384 3.48641,-6.95748 -64.30615,-74.593377 C 66.940811,32.529966 54.33722,20.326541 51.480652,18.968869 49.017481,17.798122 45.482212,17.19085 41.952035,17.157092 Z m 18.22731,198.955818 h 0.316777 l -0.151929,0.15192 z"
       id="path826"
       inkscape:connector-curvature="0" />
  </g>
</svg>
