<?xml version="1.0" encoding="UTF-8" standalone="no"?>
<!-- Created with Inkscape (http://www.inkscape.org/) -->

<svg
   xmlns:dc="http://purl.org/dc/elements/1.1/"
   xmlns:cc="http://creativecommons.org/ns#"
   xmlns:rdf="http://www.w3.org/1999/02/22-rdf-syntax-ns#"
   xmlns:svg="http://www.w3.org/2000/svg"
   xmlns="http://www.w3.org/2000/svg"
   xmlns:sodipodi="http://sodipodi.sourceforge.net/DTD/sodipodi-0.dtd"
   xmlns:inkscape="http://www.inkscape.org/namespaces/inkscape"
   width="457mm"
   height="457mm"
   viewBox="0 0 457 457"
   version="1.1"
   id="svg8"
   inkscape:version="0.92.4 (5da689c313, 2019-01-14)"
   sodipodi:docname="pin.svg">
  <defs
     id="defs2" />
  <sodipodi:namedview
     id="base"
     pagecolor="#ffffff"
     bordercolor="#666666"
     borderopacity="1.0"
     inkscape:pageopacity="0.0"
     inkscape:pageshadow="2"
     inkscape:zoom="0.7"
     inkscape:cx="838.47432"
     inkscape:cy="1187.3369"
     inkscape:document-units="mm"
     inkscape:current-layer="layer1"
     showgrid="false"
     inkscape:window-width="1920"
     inkscape:window-height="1016"
     inkscape:window-x="0"
     inkscape:window-y="27"
     inkscape:window-maximized="1" />
  <metadata
     id="metadata5">
    <rdf:RDF>
      <cc:Work
         rdf:about="">
        <dc:format>image/svg+xml</dc:format>
        <dc:type
           rdf:resource="http://purl.org/dc/dcmitype/StillImage" />
        <dc:title></dc:title>
      </cc:Work>
    </rdf:RDF>
  </metadata>
  <g
     inkscape:label="Capa 1"
     inkscape:groupmode="layer"
     id="layer1"
     transform="translate(0,160)">
    <path
       style="fill:#000000;stroke-width:0.71325672"
       d="m 319.57524,-159.91735 c -3.53018,-0.0338 -7.05491,0.50606 -9.49762,1.62987 -4.91492,2.26119 -9.76474,7.06912 -12.10727,12.00341 -1.64975,3.47504 -2.03197,5.24696 -2.03243,9.42423 -8.2e-4,7.49592 1.91488,12.0225 7.66775,18.12085 2.56393,2.71788 4.53537,5.08126 4.38113,5.25136 -0.15426,0.17019 -29.28512,29.35981 -64.73507,64.866325 l -64.45446,64.5573 -39.34024,0.20154 -39.34075,0.20102 -4.795048,2.36109 c -12.2296,6.02212 -19.20124,19.09136 -17.06408,31.98875 1.61166,9.726 2.43677,10.75201 34.047528,42.35555 l 28.84475,28.838555 -55.872038,55.9997 c -30.7296,30.79974 -57.78264,58.25855 -60.11829,61.01953 -9.59426,11.34125 -17.6747198,25.8985 -22.4813098,40.50241 -3.31179998,10.06242 -3.29605998,12.57999 0.0977,15.63936 v 5.3e-4 c 2.58127,2.32696 4.42949,2.43346 10.7667898,0.62114 11.63345,-3.32685 26.08168,-10.29454 36.19727,-17.45628 9.21081,-6.52116 19.38938,-16.32643 71.548088,-68.92499 l 53.39105,-53.84169 29.068,28.98633 c 31.70765,31.61919 32.73869,32.4502 42.35348,34.12456 12.91786,2.24954 26.54552,-4.97031 32.29933,-17.11164 l 2.20292,-4.64881 0.35657,-39.76345 0.35657,-39.76295 64.19194,-64.194025 c 26.74584,-26.74677 49.94716,-49.7800197 59.79583,-59.3906897 v 0 l 1.5875,-1.5446 c 2.15254,-2.08831 3.39112,-3.2587203 3.46232,-3.2587203 0.35977,0 2.67019,1.9361203 5.13406,4.3020603 6.02772,5.7881 10.69879,7.82348 17.95084,7.82278 6.95667,-7.3e-4 12.56681,-2.43108 17.16123,-7.43417 4.57862,-4.9858903 6.10067,-8.8899803 6.14277,-15.7587303 0.0668,-10.92384 3.48641,-6.95748 -64.30615,-74.593377 -47.87189,-47.761258 -60.47548,-59.964678 -63.33205,-61.322358 -2.46317,-1.17074 -5.99844,-1.77801 -9.52861,-1.81177 z m 18.22731,198.955815 h 0.31677 l -0.15193,0.15192 z"
       id="path826"
       inkscape:connector-curvature="0"
       sodipodi:nodetypes="cscsccscccccccccccccsccccccccccccsccscscccccc" />
  </g>
</svg>
