<?xml version="1.0"?>
<svg xmlns="http://www.w3.org/2000/svg" xmlns:xlink="http://www.w3.org/1999/xlink" version="1.1" id="Layer_1" x="0px" y="0px" viewBox="0 0 512.004 512.004" style="enable-background:new 0 0 512.004 512.004;" xml:space="preserve" width="512px" height="512px"><g><g>
	<g>
		<path d="M475.344,494.432h-95.729c0.245-1.774,0.383-3.565,0.383-5.362c0-21.737-17.691-39.422-39.435-39.422    c-0.656,0-1.308,0.016-1.958,0.049c1.774-103.709,2.732-122.813,3.093-125.959c7.412-27.163,19.032-52.813,34.538-76.241    l48.466-73.261c3.394-5.139,5.189-11.105,5.189-17.253c0-8.883-3.788-17.371-10.385-23.278    c-6.287-5.643-14.393-8.459-22.829-7.936c-8.441,0.525-16.141,4.33-21.687,10.716l-20.507,23.638l22.741-69.369    c1.122-3.403,1.691-6.94,1.691-10.511c0-13.484-8.014-25.629-20.41-30.937c-8.577-3.679-18.389-3.615-26.923,0.177    c-8.537,3.792-15.163,11.034-18.181,19.862l-11.987,35.01l3.665-66.442c0.036-0.672,0.054-1.327,0.054-1.982    c0-19.343-15.159-35.113-34.515-35.903c-19.515-0.785-36.236,14.428-37.331,33.913l-2.503,44.71l-4.91-31.926    c-2.589-16.782-16.778-28.961-33.738-28.961c-2.217,0-4.473,0.225-6.72,0.671c-17.522,3.504-29.229,19.547-27.232,37.317    l14.577,129.66c0.273,2.423-1.353,3.603-2.065,3.997c-0.882,0.488-2.636,1.09-4.48-0.371    c-11.533-9.132-25.245-20.012-36.585-29.021c-7.767-6.165-17.839-8.847-27.641-7.356c-9.838,1.497-18.71,7.094-24.336,15.355    l-0.415,0.609c-5.529,8.107-7.477,17.862-5.485,27.469c1.993,9.609,7.663,17.788,15.961,23.027l3.213,2.03    c20.472,12.918,37.32,31.025,48.721,52.365c4.643,8.687,11.356,16.126,19.408,21.51c7.212,4.83,11.995,12.559,13.173,21.258    l2.012,131.54c-0.521-0.019-1.042-0.046-1.567-0.046c-24.937,0-45.224,20.287-45.224,45.225c0,0.479,0.036,0.956,0.052,1.434    H36.661c-4.851,0-8.784,3.933-8.784,8.784s3.933,8.784,8.784,8.784h438.683c4.851,0,8.784-3.933,8.784-8.784    S480.196,494.432,475.344,494.432z M168.824,280.422c-5.665-3.788-10.397-9.04-13.683-15.189    c-12.834-24.021-31.798-44.403-54.835-58.94l-3.21-2.029c-4.234-2.673-7.124-6.843-8.141-11.742    c-1.015-4.896-0.023-9.868,2.798-14.003l0.418-0.614c2.931-4.305,7.357-7.103,12.46-7.88c5.064-0.769,10.062,0.561,14.075,3.745    c11.345,9.012,25.064,19.898,36.597,29.03c1.779,1.412,9.879,5.25,11.356,5.806c7.838,2.947,16.995,4.886,26.6,6.922    c33.787,7.158,68.724,14.56,71.319,64.384c0.244,4.689,4.123,8.327,8.764,8.327c0.153,0,0.309-0.004,0.464-0.012    c4.845-0.252,8.567-4.384,8.315-9.229c-3.297-63.299-50.648-73.331-85.222-80.657c-3.163-0.67-6.262-1.332-9.253-2.013    c2.126-3.839,3.085-8.313,2.571-12.884L175.641,53.789c-0.954-8.491,4.852-16.455,13.206-18.125    c1.11-0.22,2.217-0.331,3.289-0.331c8.098,0,15.138,6.05,16.374,14.068l14.035,91.278c0.883,5.726,5.913,9.832,11.698,9.549    c5.792-0.282,10.401-4.86,10.723-10.646l5.858-104.656c0.56-9.963,9.122-17.741,19.081-17.343    c9.902,0.404,17.659,8.464,17.659,18.349c0,0.344-0.01,0.69-0.028,1.029l-5.344,96.912c-0.37,6.725,4.158,12.543,10.768,13.835    c6.611,1.293,12.993-2.393,15.183-8.771l21.879-63.903c1.464-4.283,4.551-7.655,8.692-9.495c4.14-1.84,8.709-1.869,12.87-0.084    c5.931,2.539,9.763,8.345,9.763,14.79c0,1.698-0.272,3.383-0.813,5.024l-27.512,83.924c-2.178,6.628,0.535,13.664,6.598,17.109    c6.068,3.448,13.508,2.178,18.099-3.099l30.537-35.202c2.43-2.799,5.807-4.467,9.51-4.698c3.7-0.232,7.248,1.004,10.01,3.482    c2.888,2.587,4.544,6.304,4.544,10.199c0,2.695-0.788,5.311-2.276,7.564l-48.461,73.254    c-16.622,25.114-29.056,52.618-36.955,81.747c-0.522,1.93-1.491,5.51-3.685,135.326c-2.76,1.586-5.329,3.503-7.642,5.724    c-8.34-8.096-19.627-12.823-31.518-12.823c-13.091,0-25.327,5.632-33.804,15.166c-5.439-3.276-11.715-5.06-18.184-5.06    c-7.882,0-15.414,2.654-21.488,7.316c-4.388-5.59-10.045-10.06-16.435-13.079l-2.091-136.598    c-0.005-0.308-0.026-0.616-0.063-0.922C188.031,300.64,180.416,288.185,168.824,280.422z M361.766,494.432H145.067    c-0.025-0.477-0.05-0.953-0.05-1.434c0-15.25,12.406-27.657,27.656-27.657c11.419,0,21.814,7.178,25.868,17.862    c1.208,3.182,4.144,5.38,7.535,5.642c3.392,0.258,6.631-1.458,8.313-4.417c3.149-5.54,9.053-8.981,15.408-8.981    c5.083,0,9.935,2.202,13.31,6.04c1.898,2.157,4.73,3.25,7.586,2.928c2.855-0.323,5.371-2.023,6.738-4.55    c4.845-8.958,14.177-14.524,24.355-14.524c9.877,0,19.074,5.341,24.003,13.938c1.596,2.783,4.59,4.472,7.789,4.413    c3.207-0.062,6.125-1.867,7.613-4.709c3.799-7.259,11.221-11.767,19.371-11.767c12.057,0,21.867,9.804,21.867,21.854    C362.43,490.909,362.205,492.7,361.766,494.432z" data-original="#000000" class="active-path" data-old_color="#000000" fill="#FFFFFF"/>
	</g>
</g><g>
	<g>
		<path d="M393.913,392.539c-14.369,0-26.059,11.69-26.059,26.059c0,14.369,11.691,26.059,26.059,26.059    c14.369,0,26.059-11.69,26.059-26.059C419.971,404.229,408.282,392.539,393.913,392.539z M393.913,427.089    c-4.682,0-8.491-3.809-8.491-8.491c0-4.682,3.81-8.491,8.491-8.491c4.682,0,8.491,3.809,8.491,8.491    C402.404,423.281,398.595,427.089,393.913,427.089z" data-original="#000000" class="active-path" data-old_color="#000000" fill="#FFFFFF"/>
	</g>
</g><g>
	<g>
		<path d="M122.492,346.131c-16.306,0-29.572,13.266-29.572,29.572c0,16.306,13.266,29.572,29.572,29.572    s29.572-13.266,29.572-29.572C152.064,359.397,138.798,346.131,122.492,346.131z M122.492,387.708    c-6.62,0-12.005-5.385-12.005-12.005c0-6.62,5.385-12.005,12.005-12.005s12.005,5.385,12.005,12.005    C134.496,382.323,129.111,387.708,122.492,387.708z" data-original="#000000" class="active-path" data-old_color="#000000" fill="#FFFFFF"/>
	</g>
</g><g>
	<g>
		<circle cx="424.661" cy="449.335" r="8.784" data-original="#000000" class="active-path" data-old_color="#000000" fill="#FFFFFF"/>
	</g>
</g><g>
	<g>
		<circle cx="364.931" cy="313.478" r="8.784" data-original="#000000" class="active-path" data-old_color="#000000" fill="#FFFFFF"/>
	</g>
</g><g>
	<g>
		<circle cx="92.046" cy="427.082" r="8.784" data-original="#000000" class="active-path" data-old_color="#000000" fill="#FFFFFF"/>
	</g>
</g><g>
	<g>
		<circle cx="108.442" cy="281.856" r="8.784" data-original="#000000" class="active-path" data-old_color="#000000" fill="#FFFFFF"/>
	</g>
</g></g> </svg>
