<?xml version="1.0" encoding="UTF-8" standalone="no"?>
<svg
   xmlns:dc="http://purl.org/dc/elements/1.1/"
   xmlns:cc="http://creativecommons.org/ns#"
   xmlns:rdf="http://www.w3.org/1999/02/22-rdf-syntax-ns#"
   xmlns:svg="http://www.w3.org/2000/svg"
   xmlns="http://www.w3.org/2000/svg"
   xmlns:sodipodi="http://sodipodi.sourceforge.net/DTD/sodipodi-0.dtd"
   xmlns:inkscape="http://www.inkscape.org/namespaces/inkscape"
   id="Layer_1"
   style="enable-background:new 0 0 512 512;"
   version="1.1"
   viewBox="0 0 512 512"
   xml:space="preserve"
   sodipodi:docname="tokenStreet.svg"
   inkscape:version="0.92.4 (5da689c313, 2019-01-14)"><metadata
     id="metadata11"><rdf:RDF><cc:Work
         rdf:about=""><dc:format>image/svg+xml</dc:format><dc:type
           rdf:resource="http://purl.org/dc/dcmitype/StillImage" /><dc:title></dc:title></cc:Work></rdf:RDF></metadata><defs
     id="defs9" /><sodipodi:namedview
     pagecolor="#ffffff"
     bordercolor="#666666"
     borderopacity="1"
     objecttolerance="10"
     gridtolerance="10"
     guidetolerance="10"
     inkscape:pageopacity="0"
     inkscape:pageshadow="2"
     inkscape:window-width="1920"
     inkscape:window-height="1016"
     id="namedview7"
     showgrid="false"
     inkscape:zoom="1.84375"
     inkscape:cx="226.52871"
     inkscape:cy="258.14702"
     inkscape:window-x="0"
     inkscape:window-y="27"
     inkscape:window-maximized="1"
     inkscape:current-layer="Layer_1" /><style
     type="text/css"
     id="style2">
	.st0{fill:#231F20;}
</style><g
     id="g969"
     transform="translate(-210.98305,-80.271187)"><rect
       y="154.03389"
       x="237.01695"
       height="102.50848"
       width="33.627117"
       id="rect965"
       style="opacity:1;fill:#ffffff;fill-opacity:1;stroke:none;stroke-width:3.77952766;stroke-linecap:square;stroke-miterlimit:4;stroke-dasharray:none;stroke-opacity:1" /><path
       inkscape:connector-curvature="0"
       id="path826"
       d="m 176.98709,264.82703 c 0,-0.53628 10.40186,-26.86504 23.11836,-58.50838 l 23.12065,-57.53337 32.35262,0.20342 32.35228,0.20341 19.84213,56.1599 c 10.91291,30.88796 20.04183,57.12518 20.28672,58.3049 l 0.44457,2.14499 h -75.75734 c -60.08458,0 -75.75799,-0.20163 -75.75999,-0.97497 z m 84.82312,-10.91999 c -0.20135,-0.53624 -1.37129,-6.67875 -2.60004,-13.64995 l -2.23423,-12.67501 h -4.00025 -4.00025 l -2.72731,13.64998 -2.72765,13.65 h 9.32794 c 7.13761,0 9.2419,-0.22907 8.96179,-0.97502 z m -2.17839,-45.23994 c -0.0199,-0.53624 -0.82072,-5.36248 -1.77767,-10.72498 l -1.7398,-9.74998 -3.17354,-0.23406 -3.1739,-0.23407 -2.06907,10.37401 c -1.13838,5.70572 -2.06909,10.63731 -2.06875,10.95905 0,0.32175 3.15961,0.58496 7.0203,0.58496 5.11637,0 7.01001,-0.2644 6.98243,-0.97498 z m -1.82186,-37.82993 c -0.27712,-1.60874 -0.91244,-5.46974 -1.41184,-8.57996 l -0.90845,-5.655 h -2.59008 c -1.42446,0 -2.59008,0.13679 -2.59008,0.30411 0,0.16716 -0.70209,3.71594 -1.56002,7.88587 -0.85794,4.16995 -1.56003,7.89408 -1.56003,8.27584 0,0.38177 2.50302,0.69414 5.56227,0.69414 h 5.56197 z"
       style="fill:#000000;fill-opacity:1;stroke-width:0.77999872" /></g><path
     style="fill:#000000;stroke-width:0.14627124"
     d="m 384.77064,354.7466 v -58.50849 h 2.2672 2.26722 v 58.50849 58.50851 h -2.26722 -2.2672 z m 103.56004,0 v -58.50849 h 2.26721 2.2672 v 58.50849 58.50851 h -2.2672 -2.26721 z m -51.68695,53.5796 c -0.0512,-0.0513 -0.0931,-3.70232 -0.0931,-8.11362 v -8.02053 h 2.26845 2.26842 l -0.0378,8.08149 -0.0378,8.08148 -2.13757,0.0322 c -1.17566,0.0176 -2.17944,-0.0103 -2.23064,-0.061 z m -0.0578,-30.94411 0.0378,-8.08149 h 2.19408 2.19407 l 0.0378,8.08149 0.0378,8.08148 h -2.26967 -2.26968 z m 0.066,-14.24551 c -0.0557,-0.0557 -0.10123,-3.71051 -0.10123,-8.12181 v -8.02054 h 2.26845 2.26843 l -0.0378,8.08149 -0.0378,8.08149 -2.12937,0.0403 c -1.17116,0.0221 -2.17495,-0.005 -2.23064,-0.061 z m -0.10123,-30.91575 v -8.04491 h 2.26721 2.26719 v 8.04491 8.04493 h -2.26719 -2.26721 z m 0,-22.89143 v -8.11807 h 2.26721 2.26719 v 8.11807 8.11805 h -2.26719 -2.26721 z"
     id="path845"
     inkscape:connector-curvature="0" /><path
     style="fill:#000000;stroke-width:0.44219339"
     d="m -22.231115,190.75088 c -1.14777,6.6e-4 -2.62679,0.0221 -4.56055,0.0547 -10.497551,0.17683 -9.816401,-0.47988 -9.816401,9.47266 v 7.24805 l -32.390634,0.008 -32.39062,0.01 -1.83399,2.75391 c -1.00872,1.51497 -3.36769,4.98314 -5.24218,7.70703 l -3.40821,4.95313 5.26953,7.65039 5.27149,7.64843 32.36133,0.11328 32.363284,0.11524 v 56.39648 56.39649 l 1.08594,1.08594 c 1.073001,1.07239 1.176831,1.08398 9.146481,1.08398 7.66849,0 8.11242,-0.0464 9.08594,-0.96094 l 1.02344,-0.96137 v -37.73047 -37.73047 h 32.21093 c 30.12725,0 32.25514,-0.0497 32.88282,-0.77344 0.92247,-1.06369 9.69772,-13.91235 9.95117,-14.57031 0.11249,-0.29205 -2.11093,-3.92347 -4.94141,-8.06836 l -5.14648,-7.53516 -32.36914,-0.11328 -32.36719,-0.11328 -0.13086,-3.20703 -0.12891,-3.20508 32.41016,-0.004 32.41016,-0.002 4.98828,-7.29687 c 2.74445,-4.01312 5.09635,-7.57023 5.22461,-7.9043 0.1282,-0.33408 -2.10444,-4.01441 -4.96094,-8.17774 l -5.19336,-7.56821 h -32.41992 -32.41992 v -7.48633 -7.48438 l -1.19922,-0.94336 c -0.85557,-0.673 -1.32231,-0.86329 -4.76563,-0.86133 z"
     id="path858"
     inkscape:connector-curvature="0" /><g
     id="g963"
     transform="translate(212.06779,-87.864408)"><rect
       y="224.36333"
       x="220.13792"
       height="52.925148"
       width="49.473507"
       id="rect890"
       style="opacity:1;fill:#ffffff;fill-opacity:1;stroke:none;stroke-width:2.83464575;stroke-linecap:square;stroke-miterlimit:4;stroke-dasharray:none;stroke-opacity:1" /><rect
       y="226.66443"
       x="209.59125"
       height="44.871323"
       width="42.953743"
       id="rect890-3"
       style="opacity:1;fill:#ffffff;fill-opacity:1;stroke:none;stroke-width:2.43201542;stroke-linecap:square;stroke-miterlimit:4;stroke-dasharray:none;stroke-opacity:1" /><rect
       y="202.69472"
       x="274.59714"
       height="40.269135"
       width="40.652649"
       id="rect890-6-7"
       style="opacity:1;fill:#ffffff;fill-opacity:1;stroke:none;stroke-width:2.24136186;stroke-linecap:square;stroke-miterlimit:4;stroke-dasharray:none;stroke-opacity:1" /><rect
       y="207.77316"
       x="249.98763"
       height="40.269135"
       width="40.652649"
       id="rect890-6"
       style="opacity:1;fill:#ffffff;fill-opacity:1;stroke:none;stroke-width:2.24136186;stroke-linecap:square;stroke-miterlimit:4;stroke-dasharray:none;stroke-opacity:1" /><rect
       y="193.87386"
       x="280.34985"
       height="40.269135"
       width="40.652649"
       id="rect890-6-5"
       style="opacity:1;fill:#ffffff;fill-opacity:1;stroke:none;stroke-width:2.24136186;stroke-linecap:square;stroke-miterlimit:4;stroke-dasharray:none;stroke-opacity:1" /><rect
       transform="rotate(17.738655)"
       y="86.261673"
       x="299.15277"
       height="13.286083"
       width="37.127224"
       id="rect890-6-3"
       style="opacity:1;fill:#ffffff;fill-opacity:1;stroke:none;stroke-width:1.23034286;stroke-linecap:square;stroke-miterlimit:4;stroke-dasharray:none;stroke-opacity:1" /><rect
       transform="matrix(0.96292766,0.26975975,-0.34308975,0.93930263,0,0)"
       y="100.09963"
       x="244.3851"
       height="10.499509"
       width="32.680279"
       id="rect890-6-3-5"
       style="opacity:1;fill:#ffffff;fill-opacity:1;stroke:none;stroke-width:1.0261451;stroke-linecap:square;stroke-miterlimit:4;stroke-dasharray:none;stroke-opacity:1" /><path
       inkscape:connector-curvature="0"
       id="path888"
       d="m 204.78426,270.50952 c -20.49286,-16.69105 -37.38542,-30.56702 -37.53903,-30.83549 -0.1536,-0.26846 -0.0684,-0.66312 0.18944,-0.87702 0.25779,-0.21389 6.30057,-2.53568 13.4284,-5.15952 40.78615,-15.01389 69.52062,-26.9202 81.834,-33.90845 6.88161,-3.90554 8.06917,-5.29636 6.08023,-7.1209 -3.31197,-3.03817 -13.00485,-5.72554 -41.39146,-11.47581 -29.3159,-5.93853 -41.26507,-8.84862 -49.25299,-11.99503 -11.36509,-4.47664 -14.04551,-8.80445 -7.48818,-12.09044 7.14475,-3.58034 24.96342,-5.56063 59.50111,-6.61269 7.14418,-0.21762 13.15398,-0.29397 13.35514,-0.16965 0.68842,0.42547 0.36606,1.29829 -0.67616,1.83076 -0.57304,0.29277 -4.19598,1.42331 -8.05097,2.51232 -7.56013,2.13568 -10.50984,3.15585 -13.48708,4.66453 -2.6208,1.32806 -3.10447,1.959 -2.23674,2.91782 1.14788,1.26841 4.53246,2.26547 16.10269,4.74371 44.93635,9.62499 73.10534,17.98093 92.6335,27.47843 5.98772,2.91212 12.72649,7.20435 14.52278,9.25021 2.3817,2.7126 3.08738,5.87161 2.18289,9.77173 -3.06859,13.23145 -23.63881,33.57037 -61.03336,60.34708 -12.05472,8.63189 -40.01608,27.07578 -41.0475,27.07578 -0.20182,0 -17.13384,-13.65632 -37.62671,-30.34737 z m 45.20336,-22.46723 c 14.44396,-9.46049 26.43463,-17.48239 26.64591,-17.82643 0.31429,-0.51174 -0.29093,-1.28391 -3.32707,-4.24488 -2.7548,-2.68659 -3.90012,-3.56995 -4.44416,-3.42769 -0.4031,0.10541 -13.26741,7.41067 -28.58735,16.23389 -18.90369,10.88723 -27.85444,16.24037 -27.85444,16.65879 0,0.65962 10.11869,9.78941 10.86213,9.80057 0.24377,0.004 12.26101,-7.73376 26.70498,-17.19425 z m 50.39224,-36.04195 c 7.57186,-4.95185 13.88513,-9.18563 14.0295,-9.40841 0.44488,-0.68652 -0.38119,-1.27496 -3.2677,-2.32772 -2.70178,-0.9854 -2.8076,-0.9948 -4.05207,-0.36027 -3.82985,1.95278 -26.74894,14.76686 -27.23038,15.22453 -0.49976,0.47509 -0.20277,0.87957 2.46265,3.35396 1.85489,1.72195 3.27542,2.75698 3.66097,2.6675 0.34651,-0.0804 6.82518,-4.19775 14.39703,-9.14959 z M 288.7033,190.65469 c 3.26381,-1.50789 4.01361,-2.11847 3.37983,-2.75226 -0.20037,-0.20036 -7.37974,-2.13942 -15.95416,-4.30901 l -15.58986,-3.94472 -2.32175,0.83538 c -2.34065,0.84217 -3.03432,1.50976 -2.31558,2.2285 0.21494,0.21494 6.92935,2.40289 14.92092,4.8621 7.99157,2.45922 14.56965,4.48829 14.61796,4.50904 0.0483,0.0208 1.51651,-0.62232 3.26264,-1.42903 z m -63.95105,-17.27938 c 3.71535,-1.6431 3.24348,-1.92512 -8.15336,-4.87287 -9.3188,-2.41027 -10.12141,-2.55845 -11.46185,-2.11606 -1.87069,0.61738 -2.50351,1.34303 -1.77685,2.03747 0.5364,0.51262 17.38719,5.82377 18.61596,5.86752 0.35872,0.0127 1.60797,-0.39946 2.7761,-0.91606 z"
       style="fill:#000000;stroke-width:0.37886915" /></g><path
     style="fill:#000000"
     d=""
     id="path984"
     inkscape:connector-curvature="0" /><g
     id="g1068"
     transform="translate(-2,-4)"><rect
       y="146.2034"
       x="204.47458"
       height="155.11865"
       width="9.7627115"
       id="rect1010"
       style="opacity:1;fill:#000000;fill-opacity:1;stroke:none;stroke-width:3.47152829;stroke-linecap:square;stroke-miterlimit:4;stroke-dasharray:none;stroke-opacity:1" /><rect
       y="138.30508"
       x="292.71188"
       height="155.11865"
       width="9.7627115"
       id="rect1010-6"
       style="opacity:1;fill:#000000;fill-opacity:1;stroke:none;stroke-width:3.47152829;stroke-linecap:square;stroke-miterlimit:4;stroke-dasharray:none;stroke-opacity:1" /><rect
       y="98.711853"
       x="247.32204"
       height="75.932213"
       width="9.7627115"
       id="rect1010-2"
       style="opacity:1;fill:#000000;fill-opacity:1;stroke:none;stroke-width:2.42885566;stroke-linecap:square;stroke-miterlimit:4;stroke-dasharray:none;stroke-opacity:1" /><rect
       y="260.33899"
       x="247.32204"
       height="55.322041"
       width="9.7627115"
       id="rect1010-2-9"
       style="opacity:1;fill:#000000;fill-opacity:1;stroke:none;stroke-width:2.07318377;stroke-linecap:square;stroke-miterlimit:4;stroke-dasharray:none;stroke-opacity:1" /><rect
       y="190.54237"
       x="247.32204"
       height="55.322041"
       width="9.7627115"
       id="rect1010-2-9-1"
       style="opacity:1;fill:#000000;fill-opacity:1;stroke:none;stroke-width:2.07318377;stroke-linecap:square;stroke-miterlimit:4;stroke-dasharray:none;stroke-opacity:1" /></g><g
     id="g1000"
     transform="translate(-3.7966102,13.559322)"><path
       style="fill:#044891;fill-opacity:1;stroke:#000000;stroke-width:5;stroke-miterlimit:4;stroke-dasharray:none;stroke-opacity:1"
       id="path4"
       d="m 256,76.8 c -69,0 -125,58.6 -125,130.9 0,72.3 105.3,227.6 125,227.6 19.7,0 125,-155.3 125,-227.6 C 381,135.4 325,76.8 256,76.8 Z m 0,182.2 c -33.2,0 -60.1,-26.9 -60.1,-60.2 0,-33.2 26.9,-60.1 60.1,-60.1 33.2,0 60.1,26.9 60.1,60.1 0,33.2 -26.9,60.2 -60.1,60.2 z"
       class="st0"
       inkscape:connector-curvature="0" /></g><path
     style="fill:#000000;stroke-width:0.5070439"
     d="m -10.384944,485.92831 c -11.25545,-1.92773 -21.39061,-6.3531 -29.70828,-12.97166 -26.89,-21.39703 -31.81735,-60.24619 -11.12918,-87.74678 9.99286,-13.28343 24.81429,-21.9915 41.7214596,-24.51273 6.56727,-0.97933 10.55403,-0.97668 17.20868,0.0115 7.4510004,1.10637 13.2207304,2.88737 19.6820904,6.07548 12.42988,6.13305 22.24505,15.94823 28.37811,28.37811 3.18811,6.46136 4.96911,12.23109 6.07548,19.68209 0.98837,6.65634 0.98797,10.01787 -0.002,17.11574 -3.8884,27.87864 -25.58518,49.77544 -53.4708704,53.96379 -6.01125,0.90289 -13.49971,0.90469 -18.7554896,0.004 z m 20.98894,-8.58995 c 1.92276,-0.42536 3.54502,-0.83544 3.60502,-0.91127 0.06,-0.0758 -0.19262,-2.53367 -0.56139,-5.46185 -0.36876,-2.92818 -0.67903,-5.72326 -0.68951,-6.21129 -0.0177,-0.82418 -1.0624,-0.88733 -14.6787404,-0.88733 H -16.380344 l -0.27694,1.90141 c -0.15233,1.04579 -0.41262,3.15635 -0.57845,4.69017 -0.16582,1.53381 -0.41733,3.39658 -0.5589,4.1395 -0.25334,1.32951 -0.18301,1.36734 4.46347,2.40128 2.59648,0.57777 5.4053796,1.14888 6.2420096,1.26916 2.96177,0.42576 14.24615,-0.16723 17.6931504,-0.92978 z m 0.55577,-26.25673 c 0.0636,-0.0796 -0.70796,-6.98972 -1.7145304,-15.35595 l -1.83012,-15.21132 -9.50708,-0.13795 c -6.25458,-0.0907 -9.5070596,0.0401 -9.5070596,0.38266 0,0.28632 -0.80091,7.1545 -1.77979,15.26262 -0.97889,8.10812 -1.68519,14.8951 -1.56957,15.08219 0.19587,0.31697 25.65452,0.29511 25.90815,-0.0222 z m 37.92296,-4.32774 c 1.98836,-4.28233 3.49249,-8.82132 4.49463,-13.56342 0.91272,-4.31891 0.77224,-16.3705 -0.24348,-20.88935 -3.824,-17.01257 -14.63753,-30.91278 -30.0004,-38.5639 -3.52403,-1.75505 -11.74852,-4.51679 -12.17652,-4.0888 -0.16013,0.16014 6.87665,16.46205 15.6373,36.22647 8.76064,19.76443 16.79497,37.9318 17.85405,40.37195 1.05908,2.44016 2.07956,4.43664 2.26772,4.43664 0.18816,0 1.16318,-1.76831 2.1667,-3.92959 z m -92.02536,-15.08456 c 3.64357,-8.08735 11.31875,-25.05611 17.05596,-37.70836 5.73721,-12.65224 10.43129,-23.1915 10.43129,-23.42057 0,-0.55688 -6.14902,1.56119 -9.63383,3.31844 -7.485,3.77435 -14.81369,9.85482 -19.82709,16.45009 -3.53246,4.64705 -7.79614,13.51072 -9.40773,19.55752 -1.20433,4.51874 -1.35137,5.98074 -1.35137,13.43666 0,7.37188 0.15373,8.93872 1.29352,13.18315 1.53306,5.70881 3.78565,11.02425 4.38927,10.35729 0.23391,-0.25848 3.40641,-7.08687 7.04998,-15.17422 z M 6.3475056,410.4851 c 0,-0.87549 -1.43969,-12.87582 -1.79268,-14.94264 l -0.28145,-1.6479 h -6.23776 -6.23777 l -0.87136,7.73242 c -0.47924,4.25283 -0.9857396,8.13172 -1.1255496,8.61975 -0.23481,0.81959 0.3869896,0.88733 8.1461696,0.88733 6.48682,0 8.4004,-0.14784 8.4004,-0.64896 z m -3.25254,-27.36522 c -0.1877,-2.02184 -0.4724,-4.42642 -0.63265,-5.3435 l -0.29135,-1.66743 -4.11807,0.1463 -4.11806,0.1463 -0.31277,2.28169 c -0.17201,1.25494 -0.46144,3.59368 -0.64318,5.19721 l -0.33043,2.9155 h 5.39391 5.39391 z m -1.51013,-12.84433 c -0.16928,-0.44112 -0.30777,-1.12563 -0.30777,-1.52114 0,-0.52328 -0.67902003,-0.71908 -2.49375,-0.71908 -3.27944,0 -4.09782,0.36524 -4.09782,1.8289 0,1.16596 0.14076,1.21335 3.60356,1.21335 3.07765,0 3.55863,-0.11705 3.29578,-0.80203 z"
     id="path997"
     inkscape:connector-curvature="0" /></svg>