<?xml version="1.0" encoding="UTF-8" standalone="no"?>
<!-- Created with Inkscape (http://www.inkscape.org/) -->

<svg
   xmlns:dc="http://purl.org/dc/elements/1.1/"
   xmlns:cc="http://creativecommons.org/ns#"
   xmlns:rdf="http://www.w3.org/1999/02/22-rdf-syntax-ns#"
   xmlns:svg="http://www.w3.org/2000/svg"
   xmlns="http://www.w3.org/2000/svg"
   xmlns:sodipodi="http://sodipodi.sourceforge.net/DTD/sodipodi-0.dtd"
   xmlns:inkscape="http://www.inkscape.org/namespaces/inkscape"
   width="44.468048mm"
   height="7.7034841mm"
   viewBox="0 0 44.468049 7.703484"
   version="1.1"
   id="svg8"
   inkscape:version="0.92.4 (5da689c313, 2019-01-14)"
   sodipodi:docname="all.svg">
  <defs
     id="defs2">
    <inkscape:path-effect
       effect="spiro"
       id="path-effect5796"
       is_visible="true" />
    <inkscape:path-effect
       effect="spiro"
       id="path-effect200"
       is_visible="true" />
    <inkscape:path-effect
       effect="spiro"
       id="path-effect105"
       is_visible="true" />
    <inkscape:path-effect
       effect="spiro"
       id="path-effect101"
       is_visible="true" />
    <inkscape:path-effect
       effect="spiro"
       id="path-effect93"
       is_visible="true" />
    <inkscape:path-effect
       effect="spiro"
       id="path-effect89"
       is_visible="true" />
    <inkscape:path-effect
       effect="spiro"
       id="path-effect85"
       is_visible="true" />
    <inkscape:path-effect
       effect="spiro"
       id="path-effect81"
       is_visible="true" />
    <inkscape:path-effect
       effect="spiro"
       id="path-effect66"
       is_visible="true" />
    <inkscape:path-effect
       effect="spiro"
       id="path-effect62"
       is_visible="true" />
    <inkscape:path-effect
       effect="spiro"
       id="path-effect37"
       is_visible="true" />
    <inkscape:path-effect
       effect="spiro"
       id="path-effect33"
       is_visible="true" />
    <inkscape:path-effect
       effect="spiro"
       id="path-effect101-2"
       is_visible="true" />
    <inkscape:path-effect
       effect="spiro"
       id="path-effect81-5"
       is_visible="true" />
    <inkscape:path-effect
       effect="spiro"
       id="path-effect105-4"
       is_visible="true" />
    <inkscape:path-effect
       effect="spiro"
       id="path-effect101-6"
       is_visible="true" />
    <inkscape:path-effect
       effect="spiro"
       id="path-effect101-2-7"
       is_visible="true" />
    <inkscape:path-effect
       is_visible="true"
       id="path-effect175"
       effect="spiro" />
    <inkscape:path-effect
       is_visible="true"
       id="path-effect105-5"
       effect="spiro" />
    <inkscape:path-effect
       is_visible="true"
       id="path-effect101-7"
       effect="spiro" />
    <inkscape:path-effect
       is_visible="true"
       id="path-effect93-6"
       effect="spiro" />
    <inkscape:path-effect
       is_visible="true"
       id="path-effect89-6"
       effect="spiro" />
    <inkscape:path-effect
       is_visible="true"
       id="path-effect85-4"
       effect="spiro" />
    <inkscape:path-effect
       is_visible="true"
       id="path-effect81-9"
       effect="spiro" />
    <inkscape:path-effect
       is_visible="true"
       id="path-effect66-3"
       effect="spiro" />
    <inkscape:path-effect
       is_visible="true"
       id="path-effect62-5"
       effect="spiro" />
    <inkscape:path-effect
       is_visible="true"
       id="path-effect37-9"
       effect="spiro" />
    <inkscape:path-effect
       is_visible="true"
       id="path-effect33-1"
       effect="spiro" />
    <inkscape:path-effect
       is_visible="true"
       id="path-effect101-2-4"
       effect="spiro" />
    <inkscape:path-effect
       is_visible="true"
       id="path-effect81-5-8"
       effect="spiro" />
    <inkscape:path-effect
       is_visible="true"
       id="path-effect105-4-3"
       effect="spiro" />
    <inkscape:path-effect
       is_visible="true"
       id="path-effect101-6-3"
       effect="spiro" />
    <inkscape:path-effect
       is_visible="true"
       id="path-effect101-2-7-0"
       effect="spiro" />
    <inkscape:path-effect
       effect="spiro"
       id="path-effect101-2-7-2"
       is_visible="true" />
    <inkscape:path-effect
       effect="spiro"
       id="path-effect101-6-8"
       is_visible="true" />
    <inkscape:path-effect
       effect="spiro"
       id="path-effect101-2-9"
       is_visible="true" />
    <inkscape:path-effect
       effect="spiro"
       id="path-effect81-5-1"
       is_visible="true" />
    <inkscape:path-effect
       effect="spiro"
       id="path-effect101-3"
       is_visible="true" />
    <inkscape:path-effect
       effect="spiro"
       id="path-effect93-5"
       is_visible="true" />
    <inkscape:path-effect
       effect="spiro"
       id="path-effect85-9"
       is_visible="true" />
    <inkscape:path-effect
       effect="spiro"
       id="path-effect81-0"
       is_visible="true" />
    <inkscape:path-effect
       effect="spiro"
       id="path-effect66-2"
       is_visible="true" />
    <inkscape:path-effect
       effect="spiro"
       id="path-effect101-2-9-6"
       is_visible="true" />
    <inkscape:path-effect
       effect="spiro"
       id="path-effect101-2-9-6-6"
       is_visible="true" />
  </defs>
  <sodipodi:namedview
     id="base"
     pagecolor="#ffffff"
     bordercolor="#666666"
     borderopacity="1.0"
     inkscape:pageopacity="0.0"
     inkscape:pageshadow="2"
     inkscape:zoom="1.4142136"
     inkscape:cx="95.344956"
     inkscape:cy="9.2185517"
     inkscape:document-units="mm"
     inkscape:current-layer="layer1"
     showgrid="false"
     inkscape:window-width="1366"
     inkscape:window-height="705"
     inkscape:window-x="1358"
     inkscape:window-y="-8"
     inkscape:window-maximized="1"
     showguides="true"
     inkscape:guide-bbox="true">
    <sodipodi:guide
       position="-14.696304,5.1547842"
       orientation="1,0"
       id="guide5870"
       inkscape:locked="false" />
  </sodipodi:namedview>
  <metadata
     id="metadata5">
    <rdf:RDF>
      <cc:Work
         rdf:about="">
        <dc:format>image/svg+xml</dc:format>
        <dc:type
           rdf:resource="http://purl.org/dc/dcmitype/StillImage" />
        <dc:title></dc:title>
      </cc:Work>
    </rdf:RDF>
  </metadata>
  <g
     inkscape:label="Capa 1"
     inkscape:groupmode="layer"
     id="layer1"
     transform="translate(-89.137543,-150.60571)">
    <path
       style="fill:none;stroke:#000000;stroke-width:0.27000001;stroke-linecap:butt;stroke-linejoin:miter;stroke-miterlimit:4;stroke-dasharray:none;stroke-opacity:1"
       d="m 91.187823,156.13578 3.37427,-3.17382"
       id="path21"
       inkscape:connector-curvature="0" />
    <path
       style="fill:none;stroke:#000000;stroke-width:0.27000001;stroke-linecap:butt;stroke-linejoin:miter;stroke-miterlimit:4;stroke-dasharray:none;stroke-opacity:1"
       d="m 120.06709,154.62841 2.57341,3.43122 2.3493,-3.29076"
       id="path54"
       inkscape:connector-curvature="0"
       sodipodi:nodetypes="ccc" />
    <path
       style="fill:none;stroke:#000000;stroke-width:0.23794103;stroke-linecap:butt;stroke-linejoin:miter;stroke-miterlimit:4;stroke-dasharray:none;stroke-opacity:1"
       d="m 131.8192,150.06176 c 0.2065,-0.34551 0.32363,-0.74393 0.33699,-1.14622 0.0134,-0.4023 -0.0771,-0.80761 -0.26024,-1.16605 -0.18313,-0.35845 -0.45855,-0.66926 -0.79235,-0.89418 -0.33381,-0.22493 -0.72529,-0.36349 -1.12627,-0.39864 -0.40098,-0.0351 -0.8106,0.0332 -1.17845,0.19664 -0.36784,0.16343 -0.69313,0.42159 -0.93582,0.74272 -0.24269,0.32112 -0.40227,0.70452 -0.4591,1.103 -0.0568,0.39849 -0.0108,0.81121 0.13246,1.18737 0.13727,0.36046 0.36338,0.68671 0.65272,0.94177"
       id="path60"
       inkscape:connector-curvature="0"
       inkscape:path-effect="#path-effect62"
       inkscape:original-d="m 131.8192,150.06176 c -1.43537,-0.0874 -2.8669,-0.22851 -4.28278,-0.37536 -1.43343,-0.0942 -0.0741,1.57972 0.65272,0.94177"
       sodipodi:nodetypes="ccc"
       transform="matrix(1.134735,0,0,1.134735,-24.694311,-15.350346)" />
    <path
       style="fill:none;stroke:#000000;stroke-width:0.08753769;stroke-linecap:butt;stroke-linejoin:miter;stroke-miterlimit:4;stroke-dasharray:none;stroke-opacity:1"
       d="m 128.64016,148.68212 c -0.007,0.27988 0.10214,0.56075 0.29541,0.76329 0.19327,0.20255 0.46874,0.32428 0.74862,0.33084 0.27988,0.007 0.56075,-0.10214 0.76329,-0.29541 0.20255,-0.19327 0.32428,-0.46874 0.33084,-0.74862 0.007,-0.27988 -0.10214,-0.56075 -0.29541,-0.76329 -0.19327,-0.20255 -0.46874,-0.32428 -0.74862,-0.33084 -0.27988,-0.007 -0.56075,0.10214 -0.76329,0.29541 -0.20255,0.19327 -0.32428,0.46874 -0.33084,0.74862 z"
       id="path64"
       inkscape:connector-curvature="0"
       inkscape:path-effect="#path-effect66"
       inkscape:original-d="m 128.64016,148.68212 c -0.71298,-0.0164 1.42571,0.0331 2.13816,0.0501 0.71245,0.017 -1.42517,-0.0337 -2.13816,-0.0501 z"
       transform="matrix(3.0843857,0,0,3.0843857,-269.90106,-304.40684)" />
    <path
       style="fill:none;stroke:#000000;stroke-width:0.27094987;stroke-linecap:butt;stroke-linejoin:miter;stroke-miterlimit:4;stroke-dasharray:none;stroke-opacity:1"
       d="m 114.60947,146.50641 h 3.33091"
       id="path79"
       inkscape:connector-curvature="0"
       inkscape:path-effect="#path-effect81"
       inkscape:original-d="m 114.60947,146.50641 c 1.10663,-2.6e-4 2.22087,-2.6e-4 3.33091,0"
       transform="matrix(0.9732544,0,0,1.0202891,-0.39879301,7.573131)" />
    <path
       style="fill:none;stroke:#000000;stroke-width:0.26967746;stroke-linecap:butt;stroke-linejoin:miter;stroke-miterlimit:4;stroke-dasharray:none;stroke-opacity:1"
       d="m 118.62547,145.93945 v -3.15374"
       id="path83"
       inkscape:connector-curvature="0"
       inkscape:path-effect="#path-effect85"
       inkscape:original-d="m 118.62547,145.93945 c 2.6e-4,-1.04757 2.6e-4,-2.10276 0,-3.15374"
       transform="matrix(1.0202891,0,0,0.98246013,-5.5731964,12.625081)" />
    <path
       style="fill:none;stroke:#000000;stroke-width:0.26463088;stroke-linecap:butt;stroke-linejoin:miter;stroke-miterlimit:4;stroke-dasharray:none;stroke-opacity:1"
       d="m 112.68415,146.76627 c 0,0.27676 0.11393,0.55182 0.30963,0.74752 0.1957,0.1957 0.47076,0.30963 0.74753,0.30963 0.27676,0 0.55182,-0.11393 0.74752,-0.30963 0.1957,-0.1957 0.30963,-0.47076 0.30963,-0.74752 0,-0.27676 -0.11393,-0.55182 -0.30963,-0.74752 -0.1957,-0.1957 -0.47076,-0.30964 -0.74753,-0.30964 -0.27676,0 -0.55182,0.11394 -0.74752,0.30964 -0.1957,0.1957 -0.30963,0.47076 -0.30963,0.74752 z"
       id="path99"
       inkscape:connector-curvature="0"
       inkscape:path-effect="#path-effect101"
       inkscape:original-d="m 112.68415,146.76627 c -0.70503,2.7e-4 1.4098,-2.6e-4 2.11431,0 0.7045,2.7e-4 -1.40928,-2.6e-4 -2.11431,0 z"
       transform="matrix(1.0202891,0,0,1.0202891,-5.9631237,7.3515691)" />
    <path
       transform="matrix(1.0202891,0,0,1.0202891,-0.58320618,7.3079987)"
       style="fill:none;stroke:#000000;stroke-width:0.26463088;stroke-linecap:butt;stroke-linejoin:miter;stroke-miterlimit:4;stroke-dasharray:none;stroke-opacity:1"
       d="m 112.68415,146.76627 c 0,0.27676 0.11393,0.55182 0.30963,0.74752 0.1957,0.1957 0.47076,0.30963 0.74753,0.30963 0.27676,0 0.55182,-0.11393 0.74752,-0.30963 0.1957,-0.1957 0.30963,-0.47076 0.30963,-0.74752 0,-0.27676 -0.11393,-0.55182 -0.30963,-0.74752 -0.1957,-0.1957 -0.47076,-0.30964 -0.74753,-0.30964 -0.27676,0 -0.55182,0.11394 -0.74752,0.30964 -0.1957,0.1957 -0.30963,0.47076 -0.30963,0.74752 z"
       id="path99-5"
       inkscape:connector-curvature="0"
       inkscape:path-effect="#path-effect101-6"
       inkscape:original-d="m 112.68415,146.76627 c -0.70503,2.7e-4 1.4098,-2.6e-4 2.11431,0 0.7045,2.7e-4 -1.40928,-2.6e-4 -2.11431,0 z" />
    <path
       transform="matrix(1.0202891,0,0,1.0202891,-0.64449596,2.0859653)"
       style="fill:none;stroke:#000000;stroke-width:0.26463088;stroke-linecap:butt;stroke-linejoin:miter;stroke-miterlimit:4;stroke-dasharray:none;stroke-opacity:1"
       d="m 112.68415,146.76627 c 0,0.27676 0.11393,0.55182 0.30963,0.74752 0.1957,0.1957 0.47076,0.30963 0.74753,0.30963 0.27676,0 0.55182,-0.11393 0.74752,-0.30963 0.1957,-0.1957 0.30963,-0.47076 0.30963,-0.74752 0,-0.27676 -0.11393,-0.55182 -0.30963,-0.74752 -0.1957,-0.1957 -0.47076,-0.30964 -0.74753,-0.30964 -0.27676,0 -0.55182,0.11394 -0.74752,0.30964 -0.1957,0.1957 -0.30963,0.47076 -0.30963,0.74752 z"
       id="path99-8-9"
       inkscape:connector-curvature="0"
       inkscape:path-effect="#path-effect101-2-7"
       inkscape:original-d="m 112.68415,146.76627 c -0.70503,2.7e-4 1.4098,-2.6e-4 2.11431,0 0.7045,2.7e-4 -1.40928,-2.6e-4 -2.11431,0 z" />
    <path
       style="fill:none;stroke:#000000;stroke-width:0.0574739;stroke-linecap:butt;stroke-linejoin:miter;stroke-miterlimit:4;stroke-dasharray:none;stroke-opacity:1"
       d="m 130.42783,148.674 c 0,-0.0344 -0.0142,-0.0687 -0.0385,-0.093 -0.0243,-0.0243 -0.0586,-0.0385 -0.093,-0.0385 -0.0344,0 -0.0687,0.0142 -0.093,0.0385 -0.0243,0.0244 -0.0385,0.0586 -0.0385,0.093 0,0.0344 0.0142,0.0687 0.0385,0.093 0.0243,0.0243 0.0586,0.0385 0.093,0.0385 0.0344,0 0.0687,-0.0142 0.093,-0.0385 0.0243,-0.0244 0.0385,-0.0586 0.0385,-0.093 z"
       id="path198"
       inkscape:connector-curvature="0"
       inkscape:path-effect="#path-effect200"
       inkscape:original-d="m 130.42783,148.674 c -0.40395,2.6e-4 -0.66652,-2.7e-4 -0.26309,0 0.40342,2.6e-4 0.66705,-2.7e-4 0.26309,0 z"
       sodipodi:nodetypes="ccc"
       transform="matrix(4.6977847,0,0,4.6977847,-481.92832,-544.22131)" />
    <path
       style="fill:none;stroke:#000000;stroke-width:0.27148354;stroke-linecap:butt;stroke-linejoin:miter;stroke-miterlimit:4;stroke-dasharray:none;stroke-opacity:1"
       d="m 114.60947,146.50641 h 3.33091"
       id="path79-9"
       inkscape:connector-curvature="0"
       inkscape:path-effect="#path-effect81-0"
       inkscape:original-d="m 114.60947,146.50641 c 1.10663,-2.6e-4 2.22087,-2.6e-4 3.33091,0"
       transform="matrix(0.97134125,0,0,1.0182835,-10.964971,7.8439036)" />
    <path
       style="fill:none;stroke:#000000;stroke-width:0.27020863;stroke-linecap:butt;stroke-linejoin:miter;stroke-miterlimit:4;stroke-dasharray:none;stroke-opacity:1"
       d="m 118.62547,145.93945 v -3.15374"
       id="path83-8"
       inkscape:connector-curvature="0"
       inkscape:path-effect="#path-effect85-9"
       inkscape:original-d="m 118.62547,145.93945 c 2.6e-4,-1.04757 2.6e-4,-2.10276 0,-3.15374"
       transform="matrix(1.0182835,0,0,0.98052886,-16.129203,12.885924)" />
    <path
       transform="matrix(1.0182835,0,0,1.0182835,-16.82454,7.6057678)"
       style="fill:none;stroke:#000000;stroke-width:0.2651521;stroke-linecap:butt;stroke-linejoin:miter;stroke-miterlimit:4;stroke-dasharray:none;stroke-opacity:1"
       d="m 114.00707,142.70303 v 3.10649"
       id="path91-9"
       inkscape:connector-curvature="0"
       inkscape:path-effect="#path-effect93-5"
       inkscape:original-d="m 114.00707,142.70303 c 2.6e-4,1.03917 2.6e-4,2.07073 0,3.10649" />
    <path
       style="fill:none;stroke:#000000;stroke-width:0.2651521;stroke-linecap:butt;stroke-linejoin:miter;stroke-miterlimit:4;stroke-dasharray:none;stroke-opacity:1"
       d="m 112.68415,146.76627 c 0,0.27676 0.11393,0.55182 0.30963,0.74752 0.1957,0.1957 0.47076,0.30963 0.74753,0.30963 0.27676,0 0.55182,-0.11393 0.74752,-0.30963 0.1957,-0.1957 0.30963,-0.47076 0.30963,-0.74752 0,-0.27676 -0.11393,-0.55182 -0.30963,-0.74752 -0.1957,-0.1957 -0.47076,-0.30964 -0.74753,-0.30964 -0.27676,0 -0.55182,0.11394 -0.74752,0.30964 -0.1957,0.1957 -0.30963,0.47076 -0.30963,0.74752 z"
       id="path99-2"
       inkscape:connector-curvature="0"
       inkscape:path-effect="#path-effect101-3"
       inkscape:original-d="m 112.68415,146.76627 c -0.70503,2.7e-4 1.4098,-2.6e-4 2.11431,0 0.7045,2.7e-4 -1.40928,-2.6e-4 -2.11431,0 z"
       transform="matrix(1.0182835,0,0,1.0182835,-16.518366,7.6227762)" />
    <path
       transform="matrix(0.95418928,0,0,1.0182835,-9.0032317,2.6321356)"
       style="fill:none;stroke:#000000;stroke-width:0.27391267;stroke-linecap:butt;stroke-linejoin:miter;stroke-miterlimit:4;stroke-dasharray:none;stroke-opacity:1"
       d="m 114.60947,146.50641 h 3.33091"
       id="path79-5-7"
       inkscape:connector-curvature="0"
       inkscape:path-effect="#path-effect81-5-1"
       inkscape:original-d="m 114.60947,146.50641 c 1.10663,-2.6e-4 2.22087,-2.6e-4 3.33091,0" />
    <path
       transform="matrix(1.0182835,0,0,1.0182835,-16.53726,2.3780151)"
       style="fill:none;stroke:#000000;stroke-width:0.2651521;stroke-linecap:butt;stroke-linejoin:miter;stroke-miterlimit:4;stroke-dasharray:none;stroke-opacity:1"
       d="m 112.68415,146.76627 c 0,0.27676 0.11393,0.55182 0.30963,0.74752 0.1957,0.1957 0.47076,0.30963 0.74753,0.30963 0.27676,0 0.55182,-0.11393 0.74752,-0.30963 0.1957,-0.1957 0.30963,-0.47076 0.30963,-0.74752 0,-0.27676 -0.11393,-0.55182 -0.30963,-0.74752 -0.1957,-0.1957 -0.47076,-0.30964 -0.74753,-0.30964 -0.27676,0 -0.55182,0.11394 -0.74752,0.30964 -0.1957,0.1957 -0.30963,0.47076 -0.30963,0.74752 z"
       id="path99-8-5"
       inkscape:connector-curvature="0"
       inkscape:path-effect="#path-effect101-2-9"
       inkscape:original-d="m 112.68415,146.76627 c -0.70503,2.7e-4 1.4098,-2.6e-4 2.11431,0 0.7045,2.7e-4 -1.40928,-2.6e-4 -2.11431,0 z" />
    <path
       transform="matrix(1.0182835,0,0,1.0182835,-11.149023,7.5792945)"
       style="fill:none;stroke:#000000;stroke-width:0.2651521;stroke-linecap:butt;stroke-linejoin:miter;stroke-miterlimit:4;stroke-dasharray:none;stroke-opacity:1"
       d="m 112.68415,146.76627 c 0,0.27676 0.11393,0.55182 0.30963,0.74752 0.1957,0.1957 0.47076,0.30963 0.74753,0.30963 0.27676,0 0.55182,-0.11393 0.74752,-0.30963 0.1957,-0.1957 0.30963,-0.47076 0.30963,-0.74752 0,-0.27676 -0.11393,-0.55182 -0.30963,-0.74752 -0.1957,-0.1957 -0.47076,-0.30964 -0.74753,-0.30964 -0.27676,0 -0.55182,0.11394 -0.74752,0.30964 -0.1957,0.1957 -0.30963,0.47076 -0.30963,0.74752 z"
       id="path99-5-6"
       inkscape:connector-curvature="0"
       inkscape:path-effect="#path-effect101-6-8"
       inkscape:original-d="m 112.68415,146.76627 c -0.70503,2.7e-4 1.4098,-2.6e-4 2.11431,0 0.7045,2.7e-4 -1.40928,-2.6e-4 -2.11431,0 z" />
    <path
       transform="matrix(1.0182835,0,0,1.0182835,-11.210192,2.3675268)"
       style="fill:none;stroke:#000000;stroke-width:0.2651521;stroke-linecap:butt;stroke-linejoin:miter;stroke-miterlimit:4;stroke-dasharray:none;stroke-opacity:1"
       d="m 112.68415,146.76627 c 0,0.27676 0.11393,0.55182 0.30963,0.74752 0.1957,0.1957 0.47076,0.30963 0.74753,0.30963 0.27676,0 0.55182,-0.11393 0.74752,-0.30963 0.1957,-0.1957 0.30963,-0.47076 0.30963,-0.74752 0,-0.27676 -0.11393,-0.55182 -0.30963,-0.74752 -0.1957,-0.1957 -0.47076,-0.30964 -0.74753,-0.30964 -0.27676,0 -0.55182,0.11394 -0.74752,0.30964 -0.1957,0.1957 -0.30963,0.47076 -0.30963,0.74752 z"
       id="path99-8-9-0"
       inkscape:connector-curvature="0"
       inkscape:path-effect="#path-effect101-2-7-2"
       inkscape:original-d="m 112.68415,146.76627 c -0.70503,2.7e-4 1.4098,-2.6e-4 2.11431,0 0.7045,2.7e-4 -1.40928,-2.6e-4 -2.11431,0 z" />
    <path
       style="fill:none;stroke:#000000;stroke-width:0.26463088;stroke-linecap:butt;stroke-linejoin:miter;stroke-miterlimit:4;stroke-dasharray:none;stroke-opacity:1"
       d="m 118.38192,142.22474 -3.64629,3.64629"
       id="path5794"
       inkscape:connector-curvature="0"
       inkscape:path-effect="#path-effect5796"
       inkscape:original-d="m 118.38192,142.22474 c -1.21517,1.21516 -2.4306,2.43059 -3.64629,3.64629"
       transform="matrix(1.0202891,0,0,1.0202891,-6.2699024,7.3345252)" />
    <path
       style="fill:none;stroke:#000000;stroke-width:0.31866595;stroke-linecap:butt;stroke-linejoin:miter;stroke-miterlimit:4;stroke-dasharray:none;stroke-opacity:1"
       d="m 128.64016,148.68212 c -0.007,0.27988 0.10214,0.56075 0.29541,0.76329 0.19327,0.20255 0.46874,0.32428 0.74862,0.33084 0.27988,0.007 0.56075,-0.10214 0.76329,-0.29541 0.20255,-0.19327 0.32428,-0.46874 0.33084,-0.74862 0.007,-0.27988 -0.10214,-0.56075 -0.29541,-0.76329 -0.19327,-0.20255 -0.46874,-0.32428 -0.74862,-0.33084 -0.27988,-0.007 -0.56075,0.10214 -0.76329,0.29541 -0.20255,0.19327 -0.32428,0.46874 -0.33084,0.74862 z"
       id="path64-1"
       inkscape:connector-curvature="0"
       inkscape:path-effect="#path-effect66-2"
       inkscape:original-d="m 128.64016,148.68212 c -0.71298,-0.0164 1.42571,0.0331 2.13816,0.0501 0.71245,0.017 -1.42517,-0.0337 -2.13816,-0.0501 z"
       transform="matrix(0.84728223,0,0,0.84728223,12.647433,27.564663)" />
    <path
       transform="matrix(1.0182835,0,0,1.0182835,-20.467246,2.7135908)"
       style="fill:none;stroke:#000000;stroke-width:0.2651521;stroke-linecap:butt;stroke-linejoin:miter;stroke-miterlimit:4;stroke-dasharray:none;stroke-opacity:1"
       d="m 112.68415,146.76627 c 0,0.27676 0.11393,0.55182 0.30963,0.74752 0.1957,0.1957 0.47076,0.30963 0.74753,0.30963 0.27676,0 0.55182,-0.11393 0.74752,-0.30963 0.1957,-0.1957 0.30963,-0.47076 0.30963,-0.74752 0,-0.27676 -0.11393,-0.55182 -0.30963,-0.74752 -0.1957,-0.1957 -0.47076,-0.30964 -0.74753,-0.30964 -0.27676,0 -0.55182,0.11394 -0.74752,0.30964 -0.1957,0.1957 -0.30963,0.47076 -0.30963,0.74752 z"
       id="path99-8-5-0"
       inkscape:connector-curvature="0"
       inkscape:path-effect="#path-effect101-2-9-6"
       inkscape:original-d="m 112.68415,146.76627 c -0.70503,2.7e-4 1.4098,-2.6e-4 2.11431,0 0.7045,2.7e-4 -1.40928,-2.6e-4 -2.11431,0 z" />
    <path
       transform="matrix(1.0182835,0,0,1.0182835,-25.471868,7.5311239)"
       style="fill:none;stroke:#000000;stroke-width:0.2651521;stroke-linecap:butt;stroke-linejoin:miter;stroke-miterlimit:4;stroke-dasharray:none;stroke-opacity:1"
       d="m 112.68415,146.76627 c 0,0.27676 0.11393,0.55182 0.30963,0.74752 0.1957,0.1957 0.47076,0.30963 0.74753,0.30963 0.27676,0 0.55182,-0.11393 0.74752,-0.30963 0.1957,-0.1957 0.30963,-0.47076 0.30963,-0.74752 0,-0.27676 -0.11393,-0.55182 -0.30963,-0.74752 -0.1957,-0.1957 -0.47076,-0.30964 -0.74753,-0.30964 -0.27676,0 -0.55182,0.11394 -0.74752,0.30964 -0.1957,0.1957 -0.30963,0.47076 -0.30963,0.74752 z"
       id="path99-8-5-0-3"
       inkscape:connector-curvature="0"
       inkscape:path-effect="#path-effect101-2-9-6-6"
       inkscape:original-d="m 112.68415,146.76627 c -0.70503,2.7e-4 1.4098,-2.6e-4 2.11431,0 0.7045,2.7e-4 -1.40928,-2.6e-4 -2.11431,0 z" />
  </g>
</svg>
